<svg width="490" height="490" viewBox="0 0 490 490" fill="none" xmlns="http://www.w3.org/2000/svg">
<mask id="mask0_5500_1208" style="mask-type:luminance" maskUnits="userSpaceOnUse" x="0" y="0" width="490" height="490">
<path d="M488.5 1.5H1.5V488.5H488.5V1.5Z" fill="white" stroke="white" stroke-width="1.35"/>
</mask>
<g mask="url(#mask0_5500_1208)">
<path d="M-1.67188 491.705V472.958C-1.67188 445.496 13.4941 430.436 41.1667 430.436H78.9236C106.596 430.436 121.762 445.496 121.762 472.958V491.705" stroke="#C4BCB7" stroke-width="1.35" stroke-miterlimit="10"/>
<path d="M23.4727 491.707V472.96C23.4727 461.981 30.1341 455.372 41.1663 455.372C44.6418 455.372 75.4476 455.372 78.9232 455.372C89.9817 455.372 96.6168 461.981 96.6168 472.96C96.6168 476.726 96.6168 491.707 96.6168 491.707" stroke="#C4BCB7" stroke-width="1.35" stroke-miterlimit="10"/>
<path d="M10.8867 491.706V472.959C10.8867 453.739 21.7873 442.917 41.166 442.917H78.9229C98.2753 442.917 109.202 453.739 109.202 472.959V491.706" stroke="#C4BCB7" stroke-width="1.35" stroke-miterlimit="10"/>
<path d="M36.0332 494.259V472.932C36.0332 470.141 38.3239 467.85 41.1412 467.85H78.9508C81.7681 467.85 84.0587 470.115 84.0587 472.932V494.996" stroke="#C4BCB7" stroke-width="1.35" stroke-miterlimit="10"/>
<path d="M159.441 488.968V510.453C159.441 513.244 161.732 515.535 164.549 515.535H202.359C205.176 515.535 207.467 513.27 207.467 510.453V488.968" stroke="#C4BCB7" stroke-width="1.35" stroke-miterlimit="10"/>
<path d="M121.762 491.705H140.64C168.313 491.705 183.479 476.644 183.479 449.182V430.436" stroke="#C4BCB7" stroke-width="1.35" stroke-miterlimit="10"/>
<path d="M121.762 466.745C121.762 466.745 136.849 466.745 140.64 466.745C151.699 466.745 158.334 460.136 158.334 449.157C158.334 445.708 158.334 430.41 158.334 430.41" stroke="#C4BCB7" stroke-width="1.35" stroke-miterlimit="10"/>
<path d="M121.762 479.225H140.64C159.993 479.225 170.919 468.403 170.919 449.182V430.436" stroke="#C4BCB7" stroke-width="1.35" stroke-miterlimit="10"/>
<path d="M145.774 430.436V449.209C145.774 452 143.483 454.29 140.666 454.29H118.707" stroke="#C4BCB7" stroke-width="1.35" stroke-miterlimit="10"/>
<path d="M245.17 491.705H226.292C198.619 491.705 183.453 476.644 183.453 449.182V430.436" stroke="#C4BCB7" stroke-width="1.35" stroke-miterlimit="10"/>
<path d="M245.172 466.745H226.293C215.235 466.745 208.6 460.136 208.6 449.157C208.6 445.708 208.6 430.41 208.6 430.41" stroke="#C4BCB7" stroke-width="1.35" stroke-miterlimit="10"/>
<path d="M245.169 479.225H226.291C206.939 479.225 196.012 468.403 196.012 449.182V430.436" stroke="#C4BCB7" stroke-width="1.35" stroke-miterlimit="10"/>
<path d="M221.156 430.436V449.209C221.156 452 223.447 454.29 226.264 454.29H245.169" stroke="#C4BCB7" stroke-width="1.35" stroke-miterlimit="10"/>
<path d="M1.54036 454.292H-1.67188" stroke="#C4BCB7" stroke-width="1.35" stroke-miterlimit="10"/>
<path d="M-1.67188 124.145V142.891C-1.67188 170.353 13.4941 185.414 41.1667 185.414H78.9236C106.596 185.414 121.762 170.353 121.762 142.891V124.145" stroke="#C4BCB7" stroke-width="1.35" stroke-miterlimit="10"/>
<path d="M10.8867 124.145V142.891C10.8867 162.112 21.7873 172.934 41.166 172.934H78.9229C98.2753 172.934 109.202 162.112 109.202 142.891V124.145" stroke="#C4BCB7" stroke-width="1.35" stroke-miterlimit="10"/>
<path d="M96.6422 124.145V142.891C96.6422 153.871 89.9808 160.48 78.9486 160.48C75.473 160.48 44.6672 160.48 41.1917 160.48C30.1331 160.48 23.498 153.871 23.498 142.891C23.498 139.126 23.498 124.145 23.498 124.145" stroke="#C4BCB7" stroke-width="1.35" stroke-miterlimit="10"/>
<path d="M36.0332 121.696V142.918C36.0332 145.709 38.3239 147.999 41.1412 147.999H78.9508C81.7681 147.999 84.0587 145.735 84.0587 142.918V121.406" stroke="#C4BCB7" stroke-width="1.35" stroke-miterlimit="10"/>
<path d="M-1.67188 99.1829C-1.67188 99.1829 13.4151 99.1829 17.2066 99.1829C28.2651 99.1829 34.9002 92.5741 34.9002 81.5946C34.9002 78.1454 34.9002 47.5502 34.9002 44.101C34.9002 33.1215 28.2388 26.5127 17.2066 26.5127H-1.67188" stroke="#C4BCB7" stroke-width="1.35" stroke-miterlimit="10"/>
<path d="M-1.67188 111.662H17.2066C36.559 111.662 47.4858 100.841 47.4858 81.6199V44.1263C47.4858 24.9055 36.5853 14.084 17.2066 14.084H-1.67188" stroke="#C4BCB7" stroke-width="1.35" stroke-miterlimit="10"/>
<path d="M-1.67188 1.60522H17.2066C44.8792 1.60522 60.0452 16.6659 60.0452 44.1278V81.6214C60.0452 109.083 44.8792 124.144 17.2066 124.144H-1.67188" stroke="#C4BCB7" stroke-width="1.35" stroke-miterlimit="10"/>
<path d="M-1.67188 39.0195H17.2329C20.0502 39.0195 22.3409 41.2839 22.3409 44.1012V81.6475C22.3409 84.4384 20.0502 86.7291 17.2329 86.7291H-1.67188" stroke="#C4BCB7" stroke-width="1.35" stroke-miterlimit="10"/>
<path d="M121.763 14.084H102.885C83.5323 14.084 72.6055 24.9055 72.6055 44.1263V81.6199C72.6055 100.841 83.506 111.662 102.885 111.662H121.763" stroke="#C4BCB7" stroke-width="1.35" stroke-miterlimit="10"/>
<path d="M121.764 124.144H102.885C75.2128 124.144 60.0469 109.084 60.0469 81.6217V44.1281C60.0469 16.6661 75.2128 1.60547 102.885 1.60547H121.764" stroke="#C4BCB7" stroke-width="1.35" stroke-miterlimit="10"/>
<path d="M121.763 99.1829H102.885C91.8265 99.1829 85.1914 92.5741 85.1914 81.5946C85.1914 78.1454 85.1914 47.5502 85.1914 44.101C85.1914 33.1215 91.8528 26.5127 102.885 26.5127C106.677 26.5127 121.763 26.5127 121.763 26.5127" stroke="#C4BCB7" stroke-width="1.35" stroke-miterlimit="10"/>
<path d="M124.949 39.0195H102.858C100.041 39.0195 97.75 41.2839 97.75 44.1012V81.6475C97.75 84.4384 100.041 86.7291 102.858 86.7291H124.949" stroke="#C4BCB7" stroke-width="1.35" stroke-miterlimit="10"/>
<path d="M121.762 1.60522V20.352C121.762 47.814 136.928 62.8746 164.6 62.8746H202.357C230.03 62.8746 245.196 47.814 245.196 20.352V1.60522" stroke="#C4BCB7" stroke-width="1.35" stroke-miterlimit="10"/>
<path d="M220.05 1.60522V20.352C220.05 31.3316 213.389 37.9403 202.357 37.9403C198.881 37.9403 168.075 37.9403 164.6 37.9403C153.541 37.9403 146.906 31.3316 146.906 20.352C146.906 16.5869 146.906 1.60522 146.906 1.60522" stroke="#C4BCB7" stroke-width="1.35" stroke-miterlimit="10"/>
<path d="M232.608 1.60547V20.3523C232.608 39.573 221.708 50.3946 202.329 50.3946H164.572C145.22 50.3946 134.293 39.573 134.293 20.3523V1.60547" stroke="#C4BCB7" stroke-width="1.35" stroke-miterlimit="10"/>
<path d="M159.441 -1.10742V20.3777C159.441 23.1686 161.732 25.4593 164.549 25.4593H202.359C205.176 25.4593 207.467 23.195 207.467 20.3777V-1.10742" stroke="#C4BCB7" stroke-width="1.35" stroke-miterlimit="10"/>
<path d="M121.762 124.142V105.396C121.762 77.9337 136.928 62.873 164.6 62.873H202.357C230.03 62.873 245.196 77.9337 245.196 105.396V124.142" stroke="#C4BCB7" stroke-width="1.35" stroke-miterlimit="10"/>
<path d="M146.881 124.142V105.395C146.881 94.4154 153.542 87.8066 164.574 87.8066C168.05 87.8066 198.856 87.8066 202.331 87.8066C213.39 87.8066 220.025 94.4154 220.025 105.395C220.025 109.16 220.025 124.142 220.025 124.142" stroke="#C4BCB7" stroke-width="1.35" stroke-miterlimit="10"/>
<path d="M134.322 124.144V105.397C134.322 86.176 145.223 75.3545 164.602 75.3545H202.358C221.711 75.3545 232.638 86.176 232.638 105.397V124.144" stroke="#C4BCB7" stroke-width="1.35" stroke-miterlimit="10"/>
<path d="M207.492 126.96V105.37C207.492 102.579 205.202 100.288 202.384 100.288H164.575C161.757 100.288 159.467 102.552 159.467 105.37V127.46" stroke="#C4BCB7" stroke-width="1.35" stroke-miterlimit="10"/>
<path d="M121.762 124.145H140.64C168.313 124.145 183.479 139.205 183.479 166.667V185.414" stroke="#C4BCB7" stroke-width="1.35" stroke-miterlimit="10"/>
<path d="M121.762 149.078H140.64C151.699 149.078 158.334 155.687 158.334 166.666C158.334 170.116 158.334 185.413 158.334 185.413" stroke="#C4BCB7" stroke-width="1.35" stroke-miterlimit="10"/>
<path d="M121.762 136.597H140.64C159.993 136.597 170.919 147.418 170.919 166.639V185.386" stroke="#C4BCB7" stroke-width="1.35" stroke-miterlimit="10"/>
<path d="M145.774 185.385V166.612C145.774 163.821 143.483 161.53 140.666 161.53H119.26" stroke="#C4BCB7" stroke-width="1.35" stroke-miterlimit="10"/>
<path d="M245.17 124.145H226.292C198.619 124.145 183.453 139.205 183.453 166.667V185.414" stroke="#C4BCB7" stroke-width="1.35" stroke-miterlimit="10"/>
<path d="M245.17 149.078C245.17 149.078 230.083 149.078 226.291 149.078C215.233 149.078 208.598 155.687 208.598 166.666C208.598 170.116 208.598 185.413 208.598 185.413" stroke="#C4BCB7" stroke-width="1.35" stroke-miterlimit="10"/>
<path d="M245.169 136.597H226.291C206.939 136.597 196.012 147.418 196.012 166.639V185.386" stroke="#C4BCB7" stroke-width="1.35" stroke-miterlimit="10"/>
<path d="M221.156 185.385V166.612C221.156 163.821 223.447 161.53 226.264 161.53H245.169" stroke="#C4BCB7" stroke-width="1.35" stroke-miterlimit="10"/>
<path d="M242.09 39.0195H245.17" stroke="#C4BCB7" stroke-width="1.35" stroke-miterlimit="10"/>
<path d="M242.09 86.7295H245.17" stroke="#C4BCB7" stroke-width="1.35" stroke-miterlimit="10"/>
<path d="M1.54036 161.559H-1.67188" stroke="#C4BCB7" stroke-width="1.35" stroke-miterlimit="10"/>
<path d="M245.172 491.705V472.958C245.172 445.496 260.338 430.436 288.01 430.436H325.767C353.44 430.436 368.606 445.496 368.606 472.958V491.705" stroke="#C4BCB7" stroke-width="1.35" stroke-miterlimit="10"/>
<path d="M270.316 491.707V472.96C270.316 461.981 276.978 455.372 288.01 455.372C291.486 455.372 322.291 455.372 325.767 455.372C336.825 455.372 343.461 461.981 343.461 472.96C343.461 476.726 343.461 491.707 343.461 491.707" stroke="#C4BCB7" stroke-width="1.35" stroke-miterlimit="10"/>
<path d="M257.758 491.706V472.959C257.758 453.739 268.658 442.917 288.037 442.917H325.794C345.146 442.917 356.073 453.739 356.073 472.959V491.706" stroke="#C4BCB7" stroke-width="1.35" stroke-miterlimit="10"/>
<path d="M282.877 494.259V472.932C282.877 470.141 285.168 467.85 287.985 467.85H325.794C328.612 467.85 330.902 470.115 330.902 472.932V494.996" stroke="#C4BCB7" stroke-width="1.35" stroke-miterlimit="10"/>
<path d="M406.285 488.968V510.453C406.285 513.244 408.576 515.535 411.393 515.535H449.203C452.02 515.535 454.311 513.27 454.311 510.453V488.968" stroke="#C4BCB7" stroke-width="1.35" stroke-miterlimit="10"/>
<path d="M368.605 491.705H387.484C415.157 491.705 430.323 476.644 430.323 449.182V430.436" stroke="#C4BCB7" stroke-width="1.35" stroke-miterlimit="10"/>
<path d="M368.605 466.745C368.605 466.745 383.692 466.745 387.484 466.745C398.542 466.745 405.178 460.136 405.178 449.157C405.178 445.708 405.178 430.41 405.178 430.41" stroke="#C4BCB7" stroke-width="1.35" stroke-miterlimit="10"/>
<path d="M368.605 479.225H387.484C406.836 479.225 417.763 468.403 417.763 449.182V430.436" stroke="#C4BCB7" stroke-width="1.35" stroke-miterlimit="10"/>
<path d="M392.618 430.436V449.209C392.618 452 390.327 454.29 387.51 454.29H365.551" stroke="#C4BCB7" stroke-width="1.35" stroke-miterlimit="10"/>
<path d="M492.041 491.705H473.163C445.49 491.705 430.324 476.644 430.324 449.182V430.436" stroke="#C4BCB7" stroke-width="1.35" stroke-miterlimit="10"/>
<path d="M492.041 466.745H473.162C462.104 466.745 455.469 460.136 455.469 449.157C455.469 445.708 455.469 430.41 455.469 430.41" stroke="#C4BCB7" stroke-width="1.35" stroke-miterlimit="10"/>
<path d="M492.041 479.225H473.162C453.81 479.225 442.883 468.403 442.883 449.182V430.436" stroke="#C4BCB7" stroke-width="1.35" stroke-miterlimit="10"/>
<path d="M468 430.436V449.209C468 452 470.291 454.29 473.108 454.29H492.013" stroke="#C4BCB7" stroke-width="1.35" stroke-miterlimit="10"/>
<path d="M248.384 454.292H245.172" stroke="#C4BCB7" stroke-width="1.35" stroke-miterlimit="10"/>
<path d="M245.172 124.145V142.891C245.172 170.353 260.338 185.414 288.01 185.414H325.767C353.44 185.414 368.606 170.353 368.606 142.891V124.145" stroke="#C4BCB7" stroke-width="1.35" stroke-miterlimit="10"/>
<path d="M257.758 124.145V142.891C257.758 162.112 268.658 172.934 288.037 172.934H325.794C345.146 172.934 356.073 162.112 356.073 142.891V124.145" stroke="#C4BCB7" stroke-width="1.35" stroke-miterlimit="10"/>
<path d="M343.486 124.145V142.891C343.486 153.871 336.825 160.48 325.792 160.48C322.317 160.48 291.511 160.48 288.035 160.48C276.977 160.48 270.342 153.871 270.342 142.891C270.342 139.126 270.342 124.145 270.342 124.145" stroke="#C4BCB7" stroke-width="1.35" stroke-miterlimit="10"/>
<path d="M282.877 121.696V142.918C282.877 145.709 285.168 147.999 287.985 147.999H325.794C328.612 147.999 330.902 145.735 330.902 142.918V121.406" stroke="#C4BCB7" stroke-width="1.35" stroke-miterlimit="10"/>
<path d="M245.172 99.1829C245.172 99.1829 260.259 99.1829 264.05 99.1829C275.109 99.1829 281.744 92.5741 281.744 81.5946C281.744 78.1454 281.744 47.5502 281.744 44.101C281.744 33.1215 275.083 26.5127 264.05 26.5127H245.172" stroke="#C4BCB7" stroke-width="1.35" stroke-miterlimit="10"/>
<path d="M245.172 111.662H264.05C283.403 111.662 294.33 100.841 294.33 81.6199V44.1263C294.33 24.9055 283.429 14.084 264.05 14.084H245.172" stroke="#C4BCB7" stroke-width="1.35" stroke-miterlimit="10"/>
<path d="M245.172 1.60522H264.05C291.723 1.60522 306.889 16.6659 306.889 44.1278V81.6214C306.889 109.083 291.723 124.144 264.05 124.144H245.172" stroke="#C4BCB7" stroke-width="1.35" stroke-miterlimit="10"/>
<path d="M245.172 39.0195H264.077C266.894 39.0195 269.185 41.2839 269.185 44.1012V81.6475C269.185 84.4384 266.894 86.7291 264.077 86.7291H245.172" stroke="#C4BCB7" stroke-width="1.35" stroke-miterlimit="10"/>
<path d="M368.607 14.084H349.728C330.376 14.084 319.449 24.9055 319.449 44.1263V81.6199C319.449 100.841 330.35 111.662 349.728 111.662H368.607" stroke="#C4BCB7" stroke-width="1.35" stroke-miterlimit="10"/>
<path d="M368.608 124.144H349.729C322.057 124.144 306.891 109.084 306.891 81.6217V44.1281C306.891 16.6661 322.057 1.60547 349.729 1.60547H368.608" stroke="#C4BCB7" stroke-width="1.35" stroke-miterlimit="10"/>
<path d="M368.607 99.1829H349.729C338.67 99.1829 332.035 92.5741 332.035 81.5946C332.035 78.1454 332.035 47.5502 332.035 44.101C332.035 33.1215 338.697 26.5127 349.729 26.5127C353.52 26.5127 368.607 26.5127 368.607 26.5127" stroke="#C4BCB7" stroke-width="1.35" stroke-miterlimit="10"/>
<path d="M371.792 39.0195H349.702C346.884 39.0195 344.594 41.2839 344.594 44.1012V81.6475C344.594 84.4384 346.884 86.7291 349.702 86.7291H371.792" stroke="#C4BCB7" stroke-width="1.35" stroke-miterlimit="10"/>
<path d="M368.605 1.60522V20.352C368.605 47.814 383.771 62.8746 411.444 62.8746H449.201C476.874 62.8746 492.039 47.814 492.039 20.352V1.60522" stroke="#C4BCB7" stroke-width="1.35" stroke-miterlimit="10"/>
<path d="M466.894 1.60522V20.352C466.894 31.3316 460.233 37.9403 449.201 37.9403C445.725 37.9403 414.919 37.9403 411.444 37.9403C400.385 37.9403 393.75 31.3316 393.75 20.352C393.75 16.5869 393.75 1.60522 393.75 1.60522" stroke="#C4BCB7" stroke-width="1.35" stroke-miterlimit="10"/>
<path d="M479.452 1.60547V20.3523C479.452 39.573 468.552 50.3946 449.173 50.3946H411.416C392.064 50.3946 381.137 39.573 381.137 20.3523V1.60547" stroke="#C4BCB7" stroke-width="1.35" stroke-miterlimit="10"/>
<path d="M406.285 -1.10742V20.3777C406.285 23.1686 408.576 25.4593 411.393 25.4593H449.203C452.02 25.4593 454.311 23.195 454.311 20.3777V-1.10742" stroke="#C4BCB7" stroke-width="1.35" stroke-miterlimit="10"/>
<path d="M368.605 124.142V105.396C368.605 77.9337 383.771 62.873 411.444 62.873H449.201C476.874 62.873 492.039 77.9337 492.039 105.396V124.142" stroke="#C4BCB7" stroke-width="1.35" stroke-miterlimit="10"/>
<path d="M393.725 124.142V105.395C393.725 94.4154 400.386 87.8066 411.418 87.8066C414.894 87.8066 445.7 87.8066 449.175 87.8066C460.234 87.8066 466.869 94.4154 466.869 105.395C466.869 109.16 466.869 124.142 466.869 124.142" stroke="#C4BCB7" stroke-width="1.35" stroke-miterlimit="10"/>
<path d="M381.166 124.144V105.397C381.166 86.176 392.067 75.3545 411.445 75.3545H449.202C468.555 75.3545 479.481 86.176 479.481 105.397V124.144" stroke="#C4BCB7" stroke-width="1.35" stroke-miterlimit="10"/>
<path d="M454.336 126.96V105.37C454.336 102.579 452.045 100.288 449.228 100.288H411.419C408.601 100.288 406.311 102.552 406.311 105.37V127.46" stroke="#C4BCB7" stroke-width="1.35" stroke-miterlimit="10"/>
<path d="M368.605 124.145H387.484C415.157 124.145 430.323 139.205 430.323 166.667V185.414" stroke="#C4BCB7" stroke-width="1.35" stroke-miterlimit="10"/>
<path d="M368.605 149.078H387.484C398.542 149.078 405.178 155.687 405.178 166.666C405.178 170.116 405.178 185.413 405.178 185.413" stroke="#C4BCB7" stroke-width="1.35" stroke-miterlimit="10"/>
<path d="M368.605 136.597H387.484C406.836 136.597 417.763 147.418 417.763 166.639V185.386" stroke="#C4BCB7" stroke-width="1.35" stroke-miterlimit="10"/>
<path d="M392.618 185.385V166.612C392.618 163.821 390.327 161.53 387.51 161.53H366.104" stroke="#C4BCB7" stroke-width="1.35" stroke-miterlimit="10"/>
<path d="M492.041 124.145H473.163C445.49 124.145 430.324 139.205 430.324 166.667V185.414" stroke="#C4BCB7" stroke-width="1.35" stroke-miterlimit="10"/>
<path d="M492.041 149.078C492.041 149.078 476.954 149.078 473.162 149.078C462.104 149.078 455.469 155.687 455.469 166.666C455.469 170.116 455.469 185.413 455.469 185.413" stroke="#C4BCB7" stroke-width="1.35" stroke-miterlimit="10"/>
<path d="M492.041 136.597H473.162C453.81 136.597 442.883 147.418 442.883 166.639V185.386" stroke="#C4BCB7" stroke-width="1.35" stroke-miterlimit="10"/>
<path d="M468 185.385V166.612C468 163.821 470.291 161.53 473.108 161.53H492.013" stroke="#C4BCB7" stroke-width="1.35" stroke-miterlimit="10"/>
<path d="M488.934 39.0195H492.04" stroke="#C4BCB7" stroke-width="1.35" stroke-miterlimit="10"/>
<path d="M488.934 86.7295H492.04" stroke="#C4BCB7" stroke-width="1.35" stroke-miterlimit="10"/>
<path d="M248.384 161.559H245.172" stroke="#C4BCB7" stroke-width="1.35" stroke-miterlimit="10"/>
<path d="M-1.67188 246.656V227.909C-1.67188 200.447 13.4941 185.387 41.1667 185.387H78.9236C106.596 185.387 121.762 200.447 121.762 227.909V246.656" stroke="#C4BCB7" stroke-width="1.35" stroke-miterlimit="10"/>
<path d="M23.4727 246.655V227.909C23.4727 216.929 30.1341 210.32 41.1663 210.32C44.6418 210.32 75.4476 210.32 78.9232 210.32C89.9817 210.32 96.6168 216.929 96.6168 227.909C96.6168 231.674 96.6168 246.655 96.6168 246.655" stroke="#C4BCB7" stroke-width="1.35" stroke-miterlimit="10"/>
<path d="M10.8867 246.656V227.909C10.8867 208.689 21.7873 197.867 41.166 197.867H78.9229C98.2753 197.867 109.202 208.689 109.202 227.909V246.656" stroke="#C4BCB7" stroke-width="1.35" stroke-miterlimit="10"/>
<path d="M36.0332 249.21V227.882C36.0332 225.091 38.3239 222.801 41.1412 222.801H78.9508C81.7681 222.801 84.0587 225.065 84.0587 227.882V249.947" stroke="#C4BCB7" stroke-width="1.35" stroke-miterlimit="10"/>
<path d="M-1.67188 369.168V387.915C-1.67188 415.377 13.4941 430.438 41.1667 430.438H78.9236C106.596 430.438 121.762 415.377 121.762 387.915V369.168" stroke="#C4BCB7" stroke-width="1.35" stroke-miterlimit="10"/>
<path d="M10.8867 369.168V387.915C10.8867 407.136 21.7873 417.957 41.166 417.957H78.9229C98.2753 417.957 109.202 407.136 109.202 387.915V369.168" stroke="#C4BCB7" stroke-width="1.35" stroke-miterlimit="10"/>
<path d="M96.6422 369.168V387.915C96.6422 398.895 89.9808 405.503 78.9486 405.503C75.473 405.503 44.6672 405.503 41.1917 405.503C30.1331 405.503 23.498 398.895 23.498 387.915C23.498 384.15 23.498 369.168 23.498 369.168" stroke="#C4BCB7" stroke-width="1.35" stroke-miterlimit="10"/>
<path d="M36.0332 366.719V387.941C36.0332 390.732 38.3239 393.023 41.1412 393.023H78.9508C81.7681 393.023 84.0587 390.758 84.0587 387.941V366.43" stroke="#C4BCB7" stroke-width="1.35" stroke-miterlimit="10"/>
<path d="M-1.67188 344.236C-1.67188 344.236 13.4151 344.236 17.2066 344.236C28.2651 344.236 34.9002 337.627 34.9002 326.647C34.9002 323.198 34.9002 292.603 34.9002 289.154C34.9002 278.174 28.2388 271.565 17.2066 271.565H-1.67188" stroke="#C4BCB7" stroke-width="1.35" stroke-miterlimit="10"/>
<path d="M-1.67188 356.714H17.2066C36.559 356.714 47.4858 345.892 47.4858 326.672V289.178C47.4858 269.957 36.5853 259.136 17.2066 259.136H-1.67188" stroke="#C4BCB7" stroke-width="1.35" stroke-miterlimit="10"/>
<path d="M-1.67188 246.655H17.2066C44.8792 246.655 60.0452 261.716 60.0452 289.178V326.671C60.0452 354.133 44.8792 369.194 17.2066 369.194H-1.67188" stroke="#C4BCB7" stroke-width="1.35" stroke-miterlimit="10"/>
<path d="M-1.67188 284.072H17.2329C20.0502 284.072 22.3409 286.337 22.3409 289.154V326.7C22.3409 329.491 20.0502 331.782 17.2329 331.782H-1.67188" stroke="#C4BCB7" stroke-width="1.35" stroke-miterlimit="10"/>
<path d="M121.761 259.136H102.883C83.5304 259.136 72.6035 269.957 72.6035 289.178V326.672C72.6035 345.892 83.504 356.714 102.883 356.714H121.761" stroke="#C4BCB7" stroke-width="1.35" stroke-miterlimit="10"/>
<path d="M121.764 369.168H102.885C75.2128 369.168 60.0469 354.107 60.0469 326.645V289.152C60.0469 261.69 75.2128 246.629 102.885 246.629H121.764" stroke="#C4BCB7" stroke-width="1.35" stroke-miterlimit="10"/>
<path d="M121.763 344.236H102.885C91.8265 344.236 85.1914 337.627 85.1914 326.647C85.1914 323.198 85.1914 292.603 85.1914 289.154C85.1914 278.174 91.8528 271.565 102.885 271.565C106.677 271.565 121.763 271.565 121.763 271.565" stroke="#C4BCB7" stroke-width="1.35" stroke-miterlimit="10"/>
<path d="M124.949 284.072H102.858C100.041 284.072 97.75 286.337 97.75 289.154V326.7C97.75 329.491 100.041 331.782 102.858 331.782H124.949" stroke="#C4BCB7" stroke-width="1.35" stroke-miterlimit="10"/>
<path d="M121.762 246.655V265.402C121.762 292.864 136.928 307.925 164.6 307.925H202.357C230.03 307.925 245.196 292.864 245.196 265.402V246.655" stroke="#C4BCB7" stroke-width="1.35" stroke-miterlimit="10"/>
<path d="M220.05 246.655V265.402C220.05 276.382 213.389 282.99 202.357 282.99C198.881 282.99 168.075 282.99 164.6 282.99C153.541 282.99 146.906 276.382 146.906 265.402C146.906 261.637 146.906 246.655 146.906 246.655" stroke="#C4BCB7" stroke-width="1.35" stroke-miterlimit="10"/>
<path d="M232.608 246.655V265.402C232.608 284.623 221.708 295.444 202.329 295.444H164.572C145.22 295.444 134.293 284.623 134.293 265.402V246.655" stroke="#C4BCB7" stroke-width="1.35" stroke-miterlimit="10"/>
<path d="M159.441 243.944V265.429C159.441 268.22 161.732 270.511 164.549 270.511H202.359C205.176 270.511 207.467 268.247 207.467 265.429V243.944" stroke="#C4BCB7" stroke-width="1.35" stroke-miterlimit="10"/>
<path d="M121.762 246.656H140.64C168.313 246.656 183.479 231.595 183.479 204.134V185.387" stroke="#C4BCB7" stroke-width="1.35" stroke-miterlimit="10"/>
<path d="M121.762 221.722C121.762 221.722 136.849 221.722 140.64 221.722C151.699 221.722 158.334 215.113 158.334 204.134C158.334 200.684 158.334 185.387 158.334 185.387" stroke="#C4BCB7" stroke-width="1.35" stroke-miterlimit="10"/>
<path d="M121.762 234.176H140.64C159.993 234.176 170.919 223.354 170.919 204.134V185.387" stroke="#C4BCB7" stroke-width="1.35" stroke-miterlimit="10"/>
<path d="M145.774 185.387V204.16C145.774 206.951 143.483 209.241 140.666 209.241H118.707" stroke="#C4BCB7" stroke-width="1.35" stroke-miterlimit="10"/>
<path d="M245.17 246.656H226.292C198.619 246.656 183.453 231.595 183.453 204.134V185.387" stroke="#C4BCB7" stroke-width="1.35" stroke-miterlimit="10"/>
<path d="M245.172 221.722H226.293C215.235 221.722 208.6 215.113 208.6 204.134C208.6 200.684 208.6 185.387 208.6 185.387" stroke="#C4BCB7" stroke-width="1.35" stroke-miterlimit="10"/>
<path d="M245.169 234.176H226.291C206.939 234.176 196.012 223.354 196.012 204.134V185.387" stroke="#C4BCB7" stroke-width="1.35" stroke-miterlimit="10"/>
<path d="M221.156 185.387V204.16C221.156 206.951 223.447 209.241 226.264 209.241H245.169" stroke="#C4BCB7" stroke-width="1.35" stroke-miterlimit="10"/>
<path d="M121.762 369.17V350.423C121.762 322.961 136.928 307.9 164.6 307.9H202.357C230.03 307.9 245.196 322.961 245.196 350.423V369.17" stroke="#C4BCB7" stroke-width="1.35" stroke-miterlimit="10"/>
<path d="M146.881 369.169V350.422C146.881 339.443 153.542 332.834 164.574 332.834C168.05 332.834 198.856 332.834 202.331 332.834C213.39 332.834 220.025 339.443 220.025 350.422C220.025 354.187 220.025 369.169 220.025 369.169" stroke="#C4BCB7" stroke-width="1.35" stroke-miterlimit="10"/>
<path d="M134.322 369.167V350.42C134.322 331.199 145.223 320.378 164.602 320.378H202.358C221.711 320.378 232.638 331.199 232.638 350.42V369.167" stroke="#C4BCB7" stroke-width="1.35" stroke-miterlimit="10"/>
<path d="M207.492 372.012V350.421C207.492 347.631 205.202 345.34 202.384 345.34H164.575C161.757 345.34 159.467 347.604 159.467 350.421V372.512" stroke="#C4BCB7" stroke-width="1.35" stroke-miterlimit="10"/>
<path d="M121.762 369.168H140.64C168.313 369.168 183.479 384.229 183.479 411.691V430.438" stroke="#C4BCB7" stroke-width="1.35" stroke-miterlimit="10"/>
<path d="M121.762 394.13H140.64C151.699 394.13 158.334 400.739 158.334 411.718C158.334 415.167 158.334 430.465 158.334 430.465" stroke="#C4BCB7" stroke-width="1.35" stroke-miterlimit="10"/>
<path d="M121.762 381.649H140.64C159.993 381.649 170.919 392.471 170.919 411.692V430.439" stroke="#C4BCB7" stroke-width="1.35" stroke-miterlimit="10"/>
<path d="M145.774 430.438V411.665C145.774 408.874 143.483 406.583 140.666 406.583H119.26" stroke="#C4BCB7" stroke-width="1.35" stroke-miterlimit="10"/>
<path d="M245.17 369.168H226.292C198.619 369.168 183.453 384.229 183.453 411.691V430.437" stroke="#C4BCB7" stroke-width="1.35" stroke-miterlimit="10"/>
<path d="M245.172 394.13C245.172 394.13 230.085 394.13 226.293 394.13C215.235 394.13 208.6 400.739 208.6 411.718C208.6 415.167 208.6 430.465 208.6 430.465" stroke="#C4BCB7" stroke-width="1.35" stroke-miterlimit="10"/>
<path d="M245.169 381.649H226.291C206.939 381.649 196.012 392.471 196.012 411.692V430.439" stroke="#C4BCB7" stroke-width="1.35" stroke-miterlimit="10"/>
<path d="M221.156 430.438V411.665C221.156 408.874 223.447 406.583 226.264 406.583H245.169" stroke="#C4BCB7" stroke-width="1.35" stroke-miterlimit="10"/>
<path d="M242.09 284.072H245.17" stroke="#C4BCB7" stroke-width="1.35" stroke-miterlimit="10"/>
<path d="M242.09 331.754H245.17" stroke="#C4BCB7" stroke-width="1.35" stroke-miterlimit="10"/>
<path d="M1.54036 209.24H-1.67188" stroke="#C4BCB7" stroke-width="1.35" stroke-miterlimit="10"/>
<path d="M1.54036 406.583H-1.67188" stroke="#C4BCB7" stroke-width="1.35" stroke-miterlimit="10"/>
<path d="M245.172 246.656V227.909C245.172 200.447 260.338 185.387 288.01 185.387H325.767C353.44 185.387 368.606 200.447 368.606 227.909V246.656" stroke="#C4BCB7" stroke-width="1.35" stroke-miterlimit="10"/>
<path d="M270.316 246.655V227.909C270.316 216.929 276.978 210.32 288.01 210.32C291.486 210.32 322.291 210.32 325.767 210.32C336.825 210.32 343.461 216.929 343.461 227.909C343.461 231.674 343.461 246.655 343.461 246.655" stroke="#C4BCB7" stroke-width="1.35" stroke-miterlimit="10"/>
<path d="M257.758 246.656V227.909C257.758 208.689 268.658 197.867 288.037 197.867H325.794C345.146 197.867 356.073 208.689 356.073 227.909V246.656" stroke="#C4BCB7" stroke-width="1.35" stroke-miterlimit="10"/>
<path d="M282.877 249.21V227.882C282.877 225.091 285.168 222.801 287.985 222.801H325.794C328.612 222.801 330.902 225.065 330.902 227.882V249.947" stroke="#C4BCB7" stroke-width="1.35" stroke-miterlimit="10"/>
<path d="M245.172 369.168V387.915C245.172 415.377 260.338 430.438 288.01 430.438H325.767C353.44 430.438 368.606 415.377 368.606 387.915V369.168" stroke="#C4BCB7" stroke-width="1.35" stroke-miterlimit="10"/>
<path d="M257.758 369.168V387.915C257.758 407.136 268.658 417.957 288.037 417.957H325.794C345.146 417.957 356.073 407.136 356.073 387.915V369.168" stroke="#C4BCB7" stroke-width="1.35" stroke-miterlimit="10"/>
<path d="M343.486 369.168V387.915C343.486 398.895 336.825 405.503 325.792 405.503C322.317 405.503 291.511 405.503 288.035 405.503C276.977 405.503 270.342 398.895 270.342 387.915C270.342 384.15 270.342 369.168 270.342 369.168" stroke="#C4BCB7" stroke-width="1.35" stroke-miterlimit="10"/>
<path d="M282.877 366.719V387.941C282.877 390.732 285.168 393.023 287.985 393.023H325.794C328.612 393.023 330.902 390.758 330.902 387.941V366.43" stroke="#C4BCB7" stroke-width="1.35" stroke-miterlimit="10"/>
<path d="M245.172 344.236C245.172 344.236 260.259 344.236 264.05 344.236C275.109 344.236 281.744 337.627 281.744 326.647C281.744 323.198 281.744 292.603 281.744 289.154C281.744 278.174 275.083 271.565 264.05 271.565H245.172" stroke="#C4BCB7" stroke-width="1.35" stroke-miterlimit="10"/>
<path d="M245.172 356.714H264.05C283.403 356.714 294.33 345.892 294.33 326.672V289.178C294.33 269.957 283.429 259.136 264.05 259.136H245.172" stroke="#C4BCB7" stroke-width="1.35" stroke-miterlimit="10"/>
<path d="M245.172 246.655H264.05C291.723 246.655 306.889 261.716 306.889 289.178V326.671C306.889 354.133 291.723 369.194 264.05 369.194H245.172" stroke="#C4BCB7" stroke-width="1.35" stroke-miterlimit="10"/>
<path d="M245.172 284.072H264.077C266.894 284.072 269.185 286.337 269.185 289.154V326.7C269.185 329.491 266.894 331.782 264.077 331.782H245.172" stroke="#C4BCB7" stroke-width="1.35" stroke-miterlimit="10"/>
<path d="M368.605 259.136H349.727C330.374 259.136 319.447 269.957 319.447 289.178V326.672C319.447 345.892 330.348 356.714 349.727 356.714H368.605" stroke="#C4BCB7" stroke-width="1.35" stroke-miterlimit="10"/>
<path d="M368.608 369.168H349.729C322.057 369.168 306.891 354.107 306.891 326.645V289.152C306.891 261.69 322.057 246.629 349.729 246.629H368.608" stroke="#C4BCB7" stroke-width="1.35" stroke-miterlimit="10"/>
<path d="M368.607 344.236H349.729C338.67 344.236 332.035 337.627 332.035 326.647C332.035 323.198 332.035 292.603 332.035 289.154C332.035 278.174 338.697 271.565 349.729 271.565C353.52 271.565 368.607 271.565 368.607 271.565" stroke="#C4BCB7" stroke-width="1.35" stroke-miterlimit="10"/>
<path d="M371.792 284.072H349.702C346.884 284.072 344.594 286.337 344.594 289.154V326.7C344.594 329.491 346.884 331.782 349.702 331.782H371.792" stroke="#C4BCB7" stroke-width="1.35" stroke-miterlimit="10"/>
<path d="M368.605 246.655V265.402C368.605 292.864 383.771 307.925 411.444 307.925H449.201C476.874 307.925 492.039 292.864 492.039 265.402V246.655" stroke="#C4BCB7" stroke-width="1.35" stroke-miterlimit="10"/>
<path d="M466.894 246.655V265.402C466.894 276.382 460.233 282.99 449.201 282.99C445.725 282.99 414.919 282.99 411.444 282.99C400.385 282.99 393.75 276.382 393.75 265.402C393.75 261.637 393.75 246.655 393.75 246.655" stroke="#C4BCB7" stroke-width="1.35" stroke-miterlimit="10"/>
<path d="M479.452 246.655V265.402C479.452 284.623 468.552 295.444 449.173 295.444H411.416C392.064 295.444 381.137 284.623 381.137 265.402V246.655" stroke="#C4BCB7" stroke-width="1.35" stroke-miterlimit="10"/>
<path d="M406.285 243.944V265.429C406.285 268.22 408.576 270.511 411.393 270.511H449.203C452.02 270.511 454.311 268.247 454.311 265.429V243.944" stroke="#C4BCB7" stroke-width="1.35" stroke-miterlimit="10"/>
<path d="M368.605 246.656H387.484C415.157 246.656 430.323 231.595 430.323 204.134V185.387" stroke="#C4BCB7" stroke-width="1.35" stroke-miterlimit="10"/>
<path d="M368.605 221.722C368.605 221.722 383.692 221.722 387.484 221.722C398.542 221.722 405.178 215.113 405.178 204.134C405.178 200.684 405.178 185.387 405.178 185.387" stroke="#C4BCB7" stroke-width="1.35" stroke-miterlimit="10"/>
<path d="M368.605 234.176H387.484C406.836 234.176 417.763 223.354 417.763 204.134V185.387" stroke="#C4BCB7" stroke-width="1.35" stroke-miterlimit="10"/>
<path d="M392.618 185.387V204.16C392.618 206.951 390.327 209.241 387.51 209.241H365.551" stroke="#C4BCB7" stroke-width="1.35" stroke-miterlimit="10"/>
<path d="M492.041 246.656H473.163C445.49 246.656 430.324 231.595 430.324 204.134V185.387" stroke="#C4BCB7" stroke-width="1.35" stroke-miterlimit="10"/>
<path d="M492.041 221.722H473.162C462.104 221.722 455.469 215.113 455.469 204.134C455.469 200.684 455.469 185.387 455.469 185.387" stroke="#C4BCB7" stroke-width="1.35" stroke-miterlimit="10"/>
<path d="M492.041 234.176H473.162C453.81 234.176 442.883 223.354 442.883 204.134V185.387" stroke="#C4BCB7" stroke-width="1.35" stroke-miterlimit="10"/>
<path d="M468 185.387V204.16C468 206.951 470.291 209.241 473.108 209.241H492.013" stroke="#C4BCB7" stroke-width="1.35" stroke-miterlimit="10"/>
<path d="M368.605 369.17V350.423C368.605 322.961 383.771 307.9 411.444 307.9H449.201C476.874 307.9 492.039 322.961 492.039 350.423V369.17" stroke="#C4BCB7" stroke-width="1.35" stroke-miterlimit="10"/>
<path d="M393.725 369.169V350.422C393.725 339.443 400.386 332.834 411.418 332.834C414.894 332.834 445.7 332.834 449.175 332.834C460.234 332.834 466.869 339.443 466.869 350.422C466.869 354.187 466.869 369.169 466.869 369.169" stroke="#C4BCB7" stroke-width="1.35" stroke-miterlimit="10"/>
<path d="M381.166 369.167V350.42C381.166 331.199 392.067 320.378 411.445 320.378H449.202C468.555 320.378 479.481 331.199 479.481 350.42V369.167" stroke="#C4BCB7" stroke-width="1.35" stroke-miterlimit="10"/>
<path d="M454.336 372.012V350.421C454.336 347.631 452.045 345.34 449.228 345.34H411.419C408.601 345.34 406.311 347.604 406.311 350.421V372.512" stroke="#C4BCB7" stroke-width="1.35" stroke-miterlimit="10"/>
<path d="M368.605 369.168H387.484C415.157 369.168 430.323 384.229 430.323 411.691V430.438" stroke="#C4BCB7" stroke-width="1.35" stroke-miterlimit="10"/>
<path d="M368.605 394.13H387.484C398.542 394.13 405.178 400.739 405.178 411.718C405.178 415.167 405.178 430.465 405.178 430.465" stroke="#C4BCB7" stroke-width="1.35" stroke-miterlimit="10"/>
<path d="M368.605 381.649H387.484C406.836 381.649 417.763 392.471 417.763 411.692V430.439" stroke="#C4BCB7" stroke-width="1.35" stroke-miterlimit="10"/>
<path d="M392.618 430.438V411.665C392.618 408.874 390.327 406.583 387.51 406.583H366.104" stroke="#C4BCB7" stroke-width="1.35" stroke-miterlimit="10"/>
<path d="M492.041 369.168H473.163C445.49 369.168 430.324 384.229 430.324 411.691V430.437" stroke="#C4BCB7" stroke-width="1.35" stroke-miterlimit="10"/>
<path d="M492.041 394.13C492.041 394.13 476.954 394.13 473.162 394.13C462.104 394.13 455.469 400.739 455.469 411.718C455.469 415.167 455.469 430.465 455.469 430.465" stroke="#C4BCB7" stroke-width="1.35" stroke-miterlimit="10"/>
<path d="M492.041 381.649H473.162C453.81 381.649 442.883 392.471 442.883 411.692V430.439" stroke="#C4BCB7" stroke-width="1.35" stroke-miterlimit="10"/>
<path d="M468 430.438V411.665C468 408.874 470.291 406.583 473.108 406.583H492.013" stroke="#C4BCB7" stroke-width="1.35" stroke-miterlimit="10"/>
<path d="M488.934 284.072H492.04" stroke="#C4BCB7" stroke-width="1.35" stroke-miterlimit="10"/>
<path d="M488.934 331.754H492.04" stroke="#C4BCB7" stroke-width="1.35" stroke-miterlimit="10"/>
<path d="M248.384 209.24H245.172" stroke="#C4BCB7" stroke-width="1.35" stroke-miterlimit="10"/>
<path d="M248.384 406.583H245.172" stroke="#C4BCB7" stroke-width="1.35" stroke-miterlimit="10"/>
</g>
</svg>
