<svg xmlns="http://www.w3.org/2000/svg" width="160" height="160" viewBox="0 0 160 160">
  <rect width="160" height="160" fill="#392d2a"/>
  <defs>
    <g id="corner" fill="none" stroke-linecap="round">
      <path d="M18 78V52a34 34 0 0 1 34-34h26" stroke="#c8beb6" stroke-width="8"/>
      <path d="M32 78V54a22 22 0 0 1 22-22h24" stroke="#c8beb6" stroke-width="8"/>
      <path d="M46 78V58a12 12 0 0 1 12-12h20" stroke="#c8beb6" stroke-width="8"/>
      <path d="M18 78V52a34 34 0 0 1 34-34h26" stroke="#241d1b" stroke-width="1.5"/>
      <path d="M32 78V54a22 22 0 0 1 22-22h24" stroke="#241d1b" stroke-width="1.5"/>
      <path d="M46 78V58a12 12 0 0 1 12-12h20" stroke="#241d1b" stroke-width="1.5"/>
      <path d="M58 58h14v14a14 14 0 0 1-14-14Z" fill="#be531c" stroke="#241d1b" stroke-width="2"/>
    </g>
  </defs>
  <use href="#corner"/>
  <use href="#corner" transform="translate(160 0) rotate(90)"/>
  <use href="#corner" transform="translate(160 160) rotate(180)"/>
  <use href="#corner" transform="translate(0 160) rotate(270)"/>
</svg>
